<svg width="340" height="400" viewBox="0 0 340 400" fill="none" xmlns="http://www.w3.org/2000/svg">
<path d="M48.6667 216C48.6667 218.946 51.0545 221.333 54 221.333C56.9455 221.333 59.3333 218.946 59.3333 216C59.3333 213.054 56.9455 210.667 54 210.667C51.0545 210.667 48.6667 213.054 48.6667 216ZM54 92V91H53V92H54ZM194.667 92C194.667 94.9455 197.054 97.3333 200 97.3333C202.946 97.3333 205.333 94.9455 205.333 92C205.333 89.0545 202.946 86.6667 200 86.6667C197.054 86.6667 194.667 89.0545 194.667 92ZM55 216V214.062H53V216H55ZM55 210.188V206.312H53V210.188H55ZM55 202.438V198.562H53V202.438H55ZM55 194.688V190.812H53V194.688H55ZM55 186.938V183.062H53V186.938H55ZM55 179.188V175.312H53V179.188H55ZM55 171.438V167.562H53V171.438H55ZM55 163.688V159.812H53V163.688H55ZM55 155.938V152.062H53V155.938H55ZM55 148.188V144.312H53V148.188H55ZM55 140.438V136.562H53V140.438H55ZM55 132.688V128.812H53V132.688H55ZM55 124.938V121.062H53V124.938H55ZM55 117.188V113.312H53V117.188H55ZM55 109.438V105.562H53V109.438H55ZM55 101.688V97.8125H53V101.688H55ZM55 93.9375V92H53V93.9375H55ZM54 93H56.0278V91H54V93ZM60.0833 93H64.1389V91H60.0833V93ZM68.1944 93H72.25V91H68.1944V93ZM76.3056 93H80.3611V91H76.3056V93ZM84.4167 93H88.4722V91H84.4167V93ZM92.5278 93H96.5833V91H92.5278V93ZM100.639 93H104.694V91H100.639V93ZM108.75 93H112.806V91H108.75V93ZM116.861 93H120.917V91H116.861V93ZM124.972 93H129.028V91H124.972V93ZM133.083 93H137.139V91H133.083V93ZM141.194 93H145.25V91H141.194V93ZM149.306 93H153.361V91H149.306V93ZM157.417 93H161.472V91H157.417V93ZM165.528 93H169.583V91H165.528V93ZM173.639 93H177.694V91H173.639V93ZM181.75 93H185.806V91H181.75V93ZM189.861 93H193.917V91H189.861V93ZM197.972 93H200V91H197.972V93Z" fill="#00256B"/>
<path d="M291.333 200C291.333 197.054 288.946 194.667 286 194.667C283.054 194.667 280.667 197.054 280.667 200C280.667 202.946 283.054 205.333 286 205.333C288.946 205.333 291.333 202.946 291.333 200ZM286 324V325H287V324H286ZM145.333 324C145.333 321.054 142.946 318.667 140 318.667C137.054 318.667 134.667 321.054 134.667 324C134.667 326.946 137.054 329.333 140 329.333C142.946 329.333 145.333 326.946 145.333 324ZM285 200V201.938H287V200H285ZM285 205.812V209.688H287V205.812H285ZM285 213.562V217.438H287V213.562H285ZM285 221.312V225.188H287V221.312H285ZM285 229.062V232.938H287V229.062H285ZM285 236.812V240.688H287V236.812H285ZM285 244.562V248.438H287V244.562H285ZM285 252.312V256.188H287V252.312H285ZM285 260.062V263.938H287V260.062H285ZM285 267.812V271.688H287V267.812H285ZM285 275.562V279.438H287V275.562H285ZM285 283.312V287.188H287V283.312H285ZM285 291.062V294.938H287V291.062H285ZM285 298.812V302.688H287V298.812H285ZM285 306.562V310.438H287V306.562H285ZM285 314.312V318.188H287V314.312H285ZM285 322.062V324H287V322.062H285ZM286 323H283.972V325H286V323ZM279.917 323H275.861V325H279.917V323ZM271.806 323H267.75V325H271.806V323ZM263.694 323H259.639V325H263.694V323ZM255.583 323H251.528V325H255.583V323ZM247.472 323H243.417V325H247.472V323ZM239.361 323H235.306V325H239.361V323ZM231.25 323H227.194V325H231.25V323ZM223.139 323H219.083V325H223.139V323ZM215.028 323H210.972V325H215.028V323ZM206.917 323H202.861V325H206.917V323ZM198.806 323H194.75V325H198.806V323ZM190.694 323H186.639V325H190.694V323ZM182.583 323H178.528V325H182.583V323ZM174.472 323H170.417V325H174.472V323ZM166.361 323H162.306V325H166.361V323ZM158.25 323H154.194V325H158.25V323ZM150.139 323H146.083V325H150.139V323ZM142.028 323H140V325H142.028V323Z" fill="#00256B"/>
<path d="M117.068 358.242H22.9318C22.7515 358.242 22.5729 358.206 22.4063 358.137C22.2397 358.068 22.0883 357.967 21.9607 357.84C21.8332 357.712 21.7321 357.561 21.6631 357.394C21.5941 357.228 21.5586 357.049 21.5586 356.869V240.634C21.5586 240.453 21.5941 240.275 21.6631 240.108C21.7321 239.942 21.8332 239.79 21.9607 239.663C22.0883 239.535 22.2397 239.434 22.4063 239.365C22.5729 239.296 22.7515 239.261 22.9318 239.261H117.068C117.249 239.261 117.427 239.296 117.594 239.365C117.76 239.434 117.912 239.535 118.039 239.663C118.167 239.79 118.268 239.942 118.337 240.108C118.406 240.275 118.441 240.453 118.441 240.634V356.868C118.441 357.049 118.406 357.227 118.337 357.394C118.268 357.561 118.167 357.712 118.039 357.839C117.912 357.967 117.761 358.068 117.594 358.137C117.427 358.206 117.249 358.242 117.068 358.242ZM24.3047 355.496H115.695V242.007H24.3047V355.496Z" fill="#00256B"/>
<path d="M106.036 283.108H33.9651C31.4445 283.108 29.3929 281.042 29.3929 278.504V253.27C29.3929 250.733 31.4443 248.669 33.9651 248.669H106.036C108.556 248.669 110.607 250.733 110.607 253.27V278.504C110.607 281.042 108.556 283.108 106.036 283.108ZM33.9651 251.415C32.9577 251.415 32.1391 252.247 32.1391 253.27V278.504C32.1391 279.529 32.9577 280.362 33.9651 280.362H106.036C107.042 280.362 107.861 279.529 107.861 278.504V253.27C107.861 252.247 107.042 251.415 106.036 251.415H33.9651Z" fill="#00256B"/>
<path d="M50.0334 274.91H46.716V271.924H50.0334V274.91ZM59.2682 264.05L62.4258 258.076H66.3026L61.3466 266.432L66.5824 274.91H62.5461L59.3486 268.815L56.1094 274.91H52.2326L57.3087 266.432L52.3524 258.076H56.2289L59.2682 264.05ZM71.6595 272.286H79.0547V274.91H68.302V258.076H71.6595V272.286ZM89.9667 270.51C89.9667 269.864 89.7269 269.339 89.2883 268.936C88.8074 268.572 88.0488 268.209 86.8892 267.845C84.9311 267.281 83.4119 266.595 82.4122 265.787C81.3726 264.978 80.8933 263.929 80.8933 262.557C80.8933 261.144 81.4524 260.012 82.6115 259.166C83.7715 258.277 85.2904 257.834 87.0891 257.834C88.8872 257.834 90.4064 258.357 91.5259 259.327C92.6855 260.296 93.2447 261.508 93.2048 262.961V263.001H89.967C89.967 262.234 89.6876 261.63 89.1683 261.145C88.6876 260.7 87.9687 260.458 87.0092 260.458C86.1307 260.458 85.4504 260.66 84.971 261.064C84.4507 261.426 84.2111 261.952 84.2111 262.558C84.2111 263.122 84.4906 263.607 85.0115 263.97C85.5302 264.334 86.4104 264.698 87.6895 265.1C89.5281 265.626 90.9273 266.312 91.8857 267.16C92.8056 268.009 93.2849 269.097 93.2849 270.471C93.2849 271.925 92.726 273.054 91.6063 273.902C90.4868 274.709 89.0072 275.114 87.1686 275.114C85.3303 275.114 83.7717 274.67 82.4122 273.701C81.0529 272.772 80.4136 271.44 80.4541 269.743L80.494 269.663H83.7318C83.7318 270.671 84.0113 271.398 84.6117 271.883C85.2508 272.327 86.0908 272.569 87.1689 272.569C88.0494 272.569 88.7683 272.368 89.2484 272.004C89.7269 271.64 89.9667 271.116 89.9667 270.51ZM106.874 363.611H33.1653C32.8012 363.611 32.4519 363.466 32.1945 363.209C31.937 362.951 31.7923 362.602 31.7923 362.238C31.7923 361.874 31.937 361.525 32.1945 361.267C32.4519 361.01 32.8012 360.865 33.1653 360.865H106.874C107.634 360.865 108.247 361.479 108.247 362.238C108.247 362.997 107.634 363.611 106.874 363.611ZM100.32 368.739H39.6802C39.3161 368.739 38.9669 368.595 38.7094 368.337C38.4519 368.08 38.3073 367.731 38.3073 367.366C38.3073 367.002 38.4519 366.653 38.7094 366.396C38.9669 366.138 39.3161 365.994 39.6802 365.994H100.32C101.079 365.994 101.693 366.608 101.693 367.366C101.693 368.125 101.079 368.739 100.32 368.739ZM108.074 317.464H31.9258C31.7455 317.464 31.5669 317.428 31.4003 317.359C31.2338 317.29 31.0824 317.189 30.9549 317.062C30.8274 316.934 30.7263 316.783 30.6573 316.616C30.5883 316.45 30.5528 316.271 30.5529 316.091V304.102C30.5528 303.922 30.5882 303.743 30.6572 303.577C30.7262 303.41 30.8273 303.259 30.9548 303.131C31.0823 303.003 31.2337 302.902 31.4003 302.833C31.5669 302.764 31.7455 302.729 31.9258 302.729H108.074C108.438 302.729 108.788 302.874 109.045 303.131C109.302 303.389 109.447 303.738 109.447 304.102V316.091C109.447 316.455 109.302 316.804 109.045 317.062C108.788 317.319 108.438 317.464 108.074 317.464ZM33.2987 314.718H106.701V305.475H33.2987V314.718Z" fill="#00256B"/>
<path d="M108.074 329.496H31.9258C31.7455 329.496 31.5669 329.46 31.4003 329.391C31.2338 329.323 31.0824 329.221 30.9549 329.094C30.8274 328.966 30.7263 328.815 30.6573 328.648C30.5883 328.482 30.5528 328.303 30.5529 328.123V316.091C30.5528 315.911 30.5883 315.732 30.6573 315.566C30.7263 315.399 30.8274 315.248 30.9549 315.12C31.0824 314.993 31.2338 314.892 31.4003 314.823C31.5669 314.754 31.7455 314.718 31.9258 314.718H108.074C108.438 314.718 108.788 314.863 109.045 315.12C109.302 315.378 109.447 315.727 109.447 316.091V328.123C109.447 328.487 109.302 328.836 109.045 329.094C108.788 329.351 108.438 329.496 108.074 329.496ZM33.2987 326.75H106.701V317.464H33.2987V326.75Z" fill="#00256B"/>
<path d="M108.074 341.528H31.9258C31.7455 341.528 31.5669 341.492 31.4003 341.423C31.2338 341.354 31.0824 341.253 30.9549 341.126C30.8274 340.998 30.7263 340.847 30.6573 340.68C30.5883 340.514 30.5528 340.335 30.5529 340.155V328.123C30.5529 327.759 30.6976 327.41 30.9551 327.152C31.2125 326.895 31.5617 326.75 31.9258 326.75H108.074C108.438 326.75 108.788 326.895 109.045 327.152C109.302 327.41 109.447 327.759 109.447 328.123V340.155C109.447 340.519 109.302 340.868 109.045 341.125C108.788 341.383 108.438 341.528 108.074 341.528ZM33.2987 338.782H106.701V329.496H33.2987V338.782Z" fill="#00256B"/>
<path d="M84.6511 341.528H55.3503C55.17 341.528 54.9915 341.492 54.8249 341.423C54.6583 341.354 54.507 341.253 54.3795 341.126C54.252 340.998 54.1508 340.847 54.0819 340.68C54.0129 340.514 53.9774 340.335 53.9774 340.155V304.102C53.9773 303.922 54.0128 303.743 54.0818 303.577C54.1507 303.41 54.2519 303.259 54.3794 303.131C54.5069 303.004 54.6582 302.902 54.8248 302.833C54.9915 302.764 55.17 302.729 55.3503 302.729H84.6511C84.8314 302.729 85.01 302.764 85.1766 302.833C85.3432 302.902 85.4946 303.004 85.6221 303.131C85.7496 303.259 85.8507 303.41 85.9197 303.577C85.9886 303.743 86.0241 303.922 86.024 304.102V340.155C86.0241 340.335 85.9887 340.514 85.9197 340.68C85.8508 340.847 85.7496 340.998 85.6221 341.126C85.4946 341.253 85.3432 341.354 85.1766 341.423C85.01 341.492 84.8314 341.528 84.6511 341.528ZM56.7233 338.781H83.2782V305.475H56.7233V338.781Z" fill="#00256B"/>
<path d="M317.068 162.242H222.932C222.751 162.242 222.573 162.206 222.406 162.137C222.24 162.068 222.088 161.967 221.961 161.84C221.833 161.712 221.732 161.561 221.663 161.394C221.594 161.228 221.559 161.049 221.559 160.869V44.6337C221.559 44.4533 221.594 44.2748 221.663 44.1082C221.732 43.9416 221.833 43.7902 221.961 43.6627C222.088 43.5352 222.24 43.4341 222.406 43.3651C222.573 43.2961 222.751 43.2607 222.932 43.2607H317.068C317.249 43.2607 317.427 43.2962 317.594 43.3652C317.76 43.4342 317.912 43.5353 318.039 43.6628C318.167 43.7903 318.268 43.9416 318.337 44.1082C318.406 44.2748 318.441 44.4534 318.441 44.6337V160.868C318.441 161.049 318.406 161.227 318.337 161.394C318.268 161.561 318.167 161.712 318.039 161.839C317.912 161.967 317.761 162.068 317.594 162.137C317.427 162.206 317.249 162.242 317.068 162.242ZM224.305 159.496H315.695V46.0069H224.305V159.496Z" fill="#00256B"/>
<path d="M306.036 87.1079H233.965C231.445 87.1079 229.393 85.042 229.393 82.5043V57.2698C229.393 54.7331 231.444 52.6689 233.965 52.6689H306.036C308.556 52.6689 310.607 54.7331 310.607 57.2698V82.5043C310.607 85.042 308.556 87.1079 306.036 87.1079ZM233.965 55.4148C232.958 55.4148 232.139 56.2466 232.139 57.2698V82.5043C232.139 83.5286 232.958 84.3617 233.965 84.3617H306.036C307.042 84.3617 307.861 83.5286 307.861 82.5043V57.2698C307.861 56.2466 307.042 55.4148 306.036 55.4148H233.965Z" fill="#00256B"/>
<path d="M250.033 78.9096H246.716V75.9242H250.033V78.9096ZM259.268 68.0498L262.426 62.076H266.303L261.347 70.4322L266.582 78.9096H262.546L259.349 72.8147L256.109 78.9096H252.233L257.309 70.4322L252.352 62.076H256.229L259.268 68.0498ZM271.66 76.2863H279.055V78.9096H268.302V62.076H271.66V76.2863ZM289.967 74.51C289.967 73.8639 289.727 73.3391 289.288 72.9358C288.807 72.5724 288.049 72.2088 286.889 71.8454C284.931 71.2807 283.412 70.5949 282.412 69.7866C281.373 68.9781 280.893 67.9289 280.893 66.5573C280.893 65.1445 281.452 64.0125 282.612 63.1656C283.771 62.2772 285.29 61.834 287.089 61.834C288.887 61.834 290.406 62.3573 291.526 63.3267C292.686 64.2963 293.245 65.5082 293.205 66.9612V67.0011H289.967C289.967 66.2341 289.688 65.6296 289.168 65.1448C288.688 64.7002 287.969 64.4576 287.009 64.4576C286.131 64.4576 285.45 64.66 284.971 65.0636C284.451 65.4259 284.211 65.9517 284.211 66.5576C284.211 67.1223 284.491 67.6068 285.011 67.9705C285.53 68.3339 286.41 68.6978 287.69 69.0998C289.528 69.6259 290.927 70.3116 291.886 71.1601C292.806 72.0086 293.285 73.0974 293.285 74.4706C293.285 75.9248 292.726 77.0541 291.606 77.9023C290.487 78.7092 289.007 79.1141 287.169 79.1141C285.33 79.1141 283.772 78.6695 282.412 77.7013C281.053 76.7716 280.414 75.44 280.454 73.7433L280.494 73.6634H283.732C283.732 74.6713 284.011 75.3984 284.612 75.8832C285.251 76.3267 286.091 76.569 287.169 76.569C288.049 76.569 288.768 76.368 289.248 76.0043C289.727 75.6404 289.967 75.1157 289.967 74.51ZM306.874 167.611H233.165C232.801 167.611 232.452 167.466 232.194 167.209C231.937 166.951 231.792 166.602 231.792 166.238C231.792 165.874 231.937 165.525 232.194 165.267C232.452 165.01 232.801 164.865 233.165 164.865H306.874C307.634 164.865 308.247 165.479 308.247 166.238C308.247 166.997 307.634 167.611 306.874 167.611ZM300.32 172.739H239.68C239.316 172.739 238.967 172.595 238.709 172.337C238.452 172.08 238.307 171.731 238.307 171.366C238.307 171.002 238.452 170.653 238.709 170.396C238.967 170.138 239.316 169.994 239.68 169.994H300.32C301.079 169.994 301.693 170.608 301.693 171.366C301.693 172.125 301.079 172.739 300.32 172.739ZM308.074 121.464H231.926C231.745 121.464 231.567 121.428 231.4 121.359C231.234 121.29 231.082 121.189 230.955 121.062C230.827 120.934 230.726 120.783 230.657 120.616C230.588 120.45 230.553 120.271 230.553 120.091V108.102C230.553 107.922 230.588 107.743 230.657 107.577C230.726 107.41 230.827 107.259 230.955 107.131C231.082 107.003 231.234 106.902 231.4 106.833C231.567 106.764 231.745 106.729 231.926 106.729H308.074C308.438 106.729 308.788 106.874 309.045 107.131C309.302 107.389 309.447 107.738 309.447 108.102V120.091C309.447 120.455 309.302 120.804 309.045 121.062C308.788 121.319 308.438 121.464 308.074 121.464ZM233.299 118.718H306.701V109.475H233.299V118.718Z" fill="#00256B"/>
<path d="M308.074 133.496H231.926C231.745 133.496 231.567 133.46 231.4 133.391C231.234 133.323 231.082 133.221 230.955 133.094C230.827 132.966 230.726 132.815 230.657 132.648C230.588 132.482 230.553 132.303 230.553 132.123V120.091C230.553 119.911 230.588 119.732 230.657 119.566C230.726 119.399 230.827 119.248 230.955 119.12C231.082 118.993 231.234 118.892 231.4 118.823C231.567 118.754 231.745 118.718 231.926 118.718H308.074C308.438 118.718 308.788 118.863 309.045 119.12C309.302 119.378 309.447 119.727 309.447 120.091V132.123C309.447 132.487 309.302 132.836 309.045 133.094C308.788 133.351 308.438 133.496 308.074 133.496ZM233.299 130.75H306.701V121.464H233.299V130.75Z" fill="#00256B"/>
<path d="M308.074 145.528H231.926C231.745 145.528 231.567 145.492 231.4 145.423C231.234 145.354 231.082 145.253 230.955 145.126C230.827 144.998 230.726 144.847 230.657 144.68C230.588 144.514 230.553 144.335 230.553 144.155V132.123C230.553 131.759 230.698 131.41 230.955 131.152C231.213 130.895 231.562 130.75 231.926 130.75H308.074C308.438 130.75 308.788 130.895 309.045 131.152C309.302 131.41 309.447 131.759 309.447 132.123V144.155C309.447 144.519 309.302 144.868 309.045 145.125C308.788 145.383 308.438 145.528 308.074 145.528ZM233.299 142.782H306.701V133.496H233.299V142.782Z" fill="#00256B"/>
<path d="M284.651 145.528H255.35C255.17 145.528 254.991 145.492 254.825 145.423C254.658 145.354 254.507 145.253 254.379 145.126C254.252 144.998 254.151 144.847 254.082 144.68C254.013 144.514 253.977 144.335 253.977 144.155V108.102C253.977 107.922 254.013 107.743 254.082 107.577C254.151 107.41 254.252 107.259 254.379 107.131C254.507 107.004 254.658 106.902 254.825 106.833C254.991 106.764 255.17 106.729 255.35 106.729H284.651C284.831 106.729 285.01 106.764 285.177 106.833C285.343 106.902 285.495 107.004 285.622 107.131C285.75 107.259 285.851 107.41 285.92 107.577C285.989 107.743 286.024 107.922 286.024 108.102V144.155C286.024 144.335 285.989 144.514 285.92 144.68C285.851 144.847 285.75 144.998 285.622 145.126C285.495 145.253 285.343 145.354 285.177 145.423C285.01 145.492 284.831 145.528 284.651 145.528ZM256.723 142.781H283.278V109.475H256.723V142.781Z" fill="#00256B"/>
</svg>
