<svg width="24" height="24" viewBox="0 0 24 24" fill="none" xmlns="http://www.w3.org/2000/svg">
<path d="M22 12.23C22 11.5502 21.9438 10.8668 21.8237 10.1981H12.2015V14.0488H17.7117C17.483 15.2907 16.7484 16.3894 15.6725 17.0874V19.5859H18.96C20.8904 17.8443 22 15.2723 22 12.23Z" fill="#4285F4"/>
<path d="M12.2015 22C14.9528 22 17.2732 21.1145 18.9636 19.5859L15.6763 17.0874C14.7617 17.6974 13.5809 18.0428 12.2052 18.0428C9.5438 18.0428 7.28722 16.2827 6.47755 13.9165H3.08518V16.4921C4.81698 19.869 8.34429 22 12.2015 22Z" fill="#34A853"/>
<path d="M6.4738 13.9165C6.04647 12.6746 6.04647 11.3298 6.4738 10.0879V7.51215H3.08518C1.63827 10.3377 1.63827 13.6666 3.08518 16.4921L6.4738 13.9165Z" fill="#FBBC04"/>
<path d="M12.2015 5.95792C13.6559 5.93587 15.0615 6.47231 16.1149 7.45705L19.0274 4.60209C17.1832 2.90456 14.7354 1.97128 12.2015 2.00067C8.34428 2.00067 4.81698 4.13178 3.08518 7.51215L6.4738 10.0879C7.27971 7.71791 9.54005 5.95792 12.2015 5.95792Z" fill="#EA4335"/>
</svg>
