<svg width="72" height="80" viewBox="0 0 72 80" fill="none" xmlns="http://www.w3.org/2000/svg">
<path d="M39.9871 72H11.9961C10.9356 72 9.91852 71.5786 9.16862 70.8284C8.41872 70.0783 7.99742 69.0609 7.99742 68V12C7.99742 10.9391 8.41872 9.92172 9.16862 9.17157C9.91852 8.42143 10.9356 8 11.9961 8H31.9897V20C31.9897 23.1826 33.2536 26.2348 35.5033 28.4853C37.753 30.7357 40.8043 32 43.9858 32H55.982V40C55.982 41.0609 56.4033 42.0783 57.1532 42.8284C57.9031 43.5786 58.9202 44 59.9807 44C61.0412 44 62.0583 43.5786 62.8082 42.8284C63.5581 42.0783 63.9794 41.0609 63.9794 40V27.76C63.9377 27.3925 63.8573 27.0305 63.7395 26.68V26.32C63.5472 25.9087 63.2907 25.5307 62.9797 25.2L38.9874 1.2C38.6569 0.888865 38.2789 0.632324 37.8678 0.44C37.7484 0.42304 37.6273 0.42304 37.5079 0.44C37.1017 0.206965 36.6531 0.0573768 36.1883 0H11.9961C8.81456 0 5.7633 1.26428 3.51359 3.51472C1.26388 5.76516 0 8.8174 0 12V68C0 71.1826 1.26388 74.2348 3.51359 76.4853C5.7633 78.7357 8.81456 80 11.9961 80H39.9871C41.0476 80 42.0647 79.5786 42.8146 78.8284C43.5645 78.0783 43.9858 77.0609 43.9858 76C43.9858 74.9391 43.5645 73.9217 42.8146 73.1716C42.0647 72.4214 41.0476 72 39.9871 72ZM39.9871 13.64L50.3438 24H43.9858C42.9253 24 41.9082 23.5786 41.1583 22.8284C40.4084 22.0783 39.9871 21.0609 39.9871 20V13.64ZM19.9936 24C18.933 24 17.9159 24.4214 17.166 25.1716C16.4161 25.9217 15.9948 26.9391 15.9948 28C15.9948 29.0609 16.4161 30.0783 17.166 30.8284C17.9159 31.5786 18.933 32 19.9936 32H23.9923C25.0528 32 26.0699 31.5786 26.8198 30.8284C27.5697 30.0783 27.991 29.0609 27.991 28C27.991 26.9391 27.5697 25.9217 26.8198 25.1716C26.0699 24.4214 25.0528 24 23.9923 24H19.9936ZM43.9858 40H19.9936C18.933 40 17.9159 40.4214 17.166 41.1716C16.4161 41.9217 15.9948 42.9391 15.9948 44C15.9948 45.0609 16.4161 46.0783 17.166 46.8284C17.9159 47.5786 18.933 48 19.9936 48H43.9858C45.0464 48 46.0634 47.5786 46.8133 46.8284C47.5632 46.0783 47.9845 45.0609 47.9845 44C47.9845 42.9391 47.5632 41.9217 46.8133 41.1716C46.0634 40.4214 45.0464 40 43.9858 40ZM70.8172 61.16L62.8198 53.16C62.4395 52.7958 61.991 52.5104 61.5002 52.32C60.5267 51.9199 59.4347 51.9199 58.4612 52.32C57.9703 52.5104 57.5219 52.7958 57.1416 53.16L49.1442 61.16C48.3912 61.9132 47.9682 62.9348 47.9682 64C47.9682 65.0652 48.3912 66.0868 49.1442 66.84C49.8971 67.5932 50.9184 68.0164 51.9833 68.0164C53.0481 68.0164 54.0694 67.5932 54.8223 66.84L55.982 65.64V76C55.982 77.0609 56.4033 78.0783 57.1532 78.8284C57.9031 79.5786 58.9202 80 59.9807 80C61.0412 80 62.0583 79.5786 62.8082 78.8284C63.5581 78.0783 63.9794 77.0609 63.9794 76V65.64L65.139 66.84C65.5107 67.2149 65.953 67.5125 66.4403 67.7156C66.9276 67.9186 67.4502 68.0232 67.9781 68.0232C68.506 68.0232 69.0286 67.9186 69.5159 67.7156C70.0032 67.5125 70.4454 67.2149 70.8172 66.84C71.192 66.4681 71.4895 66.0257 71.6925 65.5383C71.8955 65.0509 72 64.528 72 64C72 63.472 71.8955 62.9491 71.6925 62.4617C71.4895 61.9743 71.192 61.5319 70.8172 61.16ZM35.9884 64C37.0489 64 38.066 63.5786 38.8159 62.8284C39.5658 62.0783 39.9871 61.0609 39.9871 60C39.9871 58.9391 39.5658 57.9217 38.8159 57.1716C38.066 56.4214 37.0489 56 35.9884 56H19.9936C18.933 56 17.9159 56.4214 17.166 57.1716C16.4161 57.9217 15.9948 58.9391 15.9948 60C15.9948 61.0609 16.4161 62.0783 17.166 62.8284C17.9159 63.5786 18.933 64 19.9936 64H35.9884Z" fill="#AAC2F1"/>
</svg>
