<svg width="167" height="39" viewBox="0 0 167 39" fill="none" xmlns="http://www.w3.org/2000/svg">
<path d="M16.4992 2H37.5808L22.0816 24.9729H1L16.4992 2Z" fill="#00B147"/>
<path d="M17.4221 27.102L11.4189 36H33.5005L48.9997 13.0271H32.7021L23.2061 27.102H17.4221Z" fill="#003DB1"/>
<path d="M65.42 12.8L68.52 17.7L71.62 12.8H75.16L70.24 20L75 27H71.46L68.52 22.3L65.58 27H62.02L66.78 20L61.86 12.8H65.42ZM76.3873 27V12.8H79.6673V24.12H86.5473V27H76.3873ZM100.728 16.96C100.688 16.9067 100.548 16.8067 100.308 16.66C100.068 16.5133 99.7677 16.36 99.4077 16.2C99.0477 16.04 98.6543 15.9 98.2277 15.78C97.801 15.66 97.3743 15.6 96.9477 15.6C95.7743 15.6 95.1877 15.9933 95.1877 16.78C95.1877 17.02 95.2477 17.22 95.3677 17.38C95.501 17.54 95.6877 17.6867 95.9277 17.82C96.181 17.94 96.4943 18.0533 96.8677 18.16C97.241 18.2667 97.6743 18.3867 98.1677 18.52C98.8477 18.7067 99.461 18.9133 100.008 19.14C100.554 19.3533 101.014 19.6267 101.388 19.96C101.774 20.28 102.068 20.6733 102.268 21.14C102.481 21.6067 102.588 22.1667 102.588 22.82C102.588 23.62 102.434 24.3 102.128 24.86C101.834 25.4067 101.441 25.8533 100.948 26.2C100.454 26.5333 99.8877 26.78 99.2477 26.94C98.6077 27.0867 97.9477 27.16 97.2677 27.16C96.7477 27.16 96.2143 27.12 95.6677 27.04C95.121 26.96 94.5877 26.8467 94.0677 26.7C93.5477 26.54 93.041 26.3533 92.5477 26.14C92.0677 25.9267 91.621 25.68 91.2077 25.4L92.6477 22.54C92.701 22.6067 92.8743 22.7333 93.1677 22.92C93.461 23.1067 93.821 23.2933 94.2477 23.48C94.6877 23.6667 95.1743 23.8333 95.7077 23.98C96.241 24.1267 96.781 24.2 97.3277 24.2C98.4877 24.2 99.0677 23.8467 99.0677 23.14C99.0677 22.8733 98.981 22.6533 98.8077 22.48C98.6343 22.3067 98.3943 22.1533 98.0877 22.02C97.781 21.8733 97.4143 21.74 96.9877 21.62C96.5743 21.5 96.121 21.3667 95.6277 21.22C94.9743 21.02 94.4077 20.8067 93.9277 20.58C93.4477 20.34 93.0477 20.0667 92.7277 19.76C92.421 19.4533 92.1877 19.1 92.0277 18.7C91.881 18.3 91.8077 17.8333 91.8077 17.3C91.8077 16.5533 91.9477 15.8933 92.2277 15.32C92.5077 14.7467 92.8877 14.2667 93.3677 13.88C93.8477 13.48 94.401 13.18 95.0277 12.98C95.6677 12.78 96.341 12.68 97.0477 12.68C97.541 12.68 98.0277 12.7267 98.5077 12.82C98.9877 12.9133 99.4477 13.0333 99.8877 13.18C100.328 13.3267 100.734 13.4933 101.108 13.68C101.494 13.8667 101.848 14.0533 102.168 14.24L100.728 16.96ZM108.92 12.82H111.94L113.38 17.36L114.82 12.82H117.86L115.48 19.42L116.92 23.24L120.48 12.8H124.06L118.38 27H115.64L113.38 21.44L111.14 27H108.38L102.72 12.8H106.28L109.86 23.24L111.26 19.42L108.92 12.82ZM135.274 24.12V27H125.294V12.8H135.094V15.68H128.574V18.44H134.174V21.1H128.574V24.12H135.274ZM147.246 24.12V27H137.266V12.8H147.066V15.68H140.546V18.44H146.146V21.1H140.546V24.12H147.246ZM149.239 27V12.8H155.299C155.979 12.8 156.599 12.94 157.159 13.22C157.732 13.5 158.219 13.8667 158.619 14.32C159.032 14.7733 159.352 15.2867 159.579 15.86C159.819 16.4333 159.939 17.0133 159.939 17.6C159.939 18.2267 159.826 18.8267 159.599 19.4C159.386 19.9733 159.079 20.4867 158.679 20.94C158.292 21.3933 157.819 21.7533 157.259 22.02C156.699 22.2867 156.079 22.42 155.399 22.42H152.519V27H149.239ZM152.519 19.56H155.199C155.586 19.56 155.919 19.3933 156.199 19.06C156.479 18.7267 156.619 18.24 156.619 17.6C156.619 17.2667 156.572 16.98 156.479 16.74C156.399 16.5 156.286 16.3 156.139 16.14C155.992 15.98 155.826 15.8667 155.639 15.8C155.452 15.72 155.266 15.68 155.079 15.68H152.519V19.56Z" fill="#003DB1"/>
</svg>
