<svg width="48" height="49" viewBox="0 0 48 49" fill="none" xmlns="http://www.w3.org/2000/svg">
<rect y="0.5" width="48" height="48" rx="8" fill="#003DB1"/>
<path d="M26.666 22.5C26.666 21.9696 26.8767 21.4609 27.2518 21.0858C27.6269 20.7107 28.1356 20.5 28.666 20.5C29.1964 20.5 29.7052 20.7107 30.0802 21.0858C30.4553 21.4609 30.666 21.9696 30.666 22.5V24.5M18.666 25.8333V14.5C18.666 13.9696 18.8767 13.4609 19.2518 13.0858C19.6269 12.7107 20.1356 12.5 20.666 12.5C21.1964 12.5 21.7052 12.7107 22.0802 13.0858C22.4553 13.4609 22.666 13.9696 22.666 14.5V24.5L18.666 25.8333ZM22.666 23.8333V21.1667C22.666 20.6362 22.8767 20.1275 23.2518 19.7525C23.6269 19.3774 24.1356 19.1667 24.666 19.1667C25.1964 19.1667 25.7052 19.3774 26.0802 19.7525C26.4553 20.1275 26.666 20.6362 26.666 21.1667V24.5L22.666 23.8333Z" stroke="white" stroke-width="2" stroke-linecap="round" stroke-linejoin="round"/>
<path d="M28 16.5H29.3333M30.6667 23.8333C30.6667 23.3029 30.8774 22.7942 31.2525 22.4191C31.6275 22.044 32.1362 21.8333 32.6667 21.8333C33.1971 21.8333 33.7058 22.044 34.0809 22.4191C34.456 22.7942 34.6667 23.3029 34.6667 23.8333V29.8333C34.6667 31.9551 33.8238 33.9899 32.3235 35.4902C30.8232 36.9905 28.7884 37.8333 26.6667 37.8333H24H24.2773C22.9524 37.8335 21.6482 37.5047 20.4818 36.8764C19.3154 36.248 18.3234 35.3398 17.5947 34.2333L17.3333 33.8333C16.9173 33.1947 15.4573 30.6493 12.952 26.196C12.6966 25.742 12.6284 25.2063 12.7618 24.7029C12.8953 24.1994 13.2199 23.7678 13.6667 23.5C14.1425 23.2145 14.7001 23.0961 15.2509 23.1638C15.8017 23.2314 16.3141 23.4812 16.7067 23.8733L18.6667 25.8333L30.6667 23.8333ZM14.6667 12.5L13.3333 11.1667L14.6667 12.5ZM13.3333 17.8333H12H13.3333ZM26.6667 12.5L28 11.1667L26.6667 12.5Z" stroke="white" stroke-width="2" stroke-linecap="round" stroke-linejoin="round"/>
</svg>
