<svg width="48" height="49" viewBox="0 0 48 49" fill="none" xmlns="http://www.w3.org/2000/svg">
<rect y="0.5" width="48" height="48" rx="8" fill="#003DB1"/>
<path d="M16.0008 13.3C15.1521 13.3 14.3382 13.6371 13.738 14.2373C13.1379 14.8374 12.8008 15.6513 12.8008 16.5V19.7C12.8008 20.5487 13.1379 21.3626 13.738 21.9627C14.3382 22.5629 15.1521 22.9 16.0008 22.9H19.2008C20.0495 22.9 20.8634 22.5629 21.4635 21.9627C22.0636 21.3626 22.4008 20.5487 22.4008 19.7V16.5C22.4008 15.6513 22.0636 14.8374 21.4635 14.2373C20.8634 13.6371 20.0495 13.3 19.2008 13.3H16.0008ZM16.0008 26.1C15.1521 26.1 14.3382 26.4371 13.738 27.0373C13.1379 27.6374 12.8008 28.4513 12.8008 29.3V32.5C12.8008 33.3487 13.1379 34.1626 13.738 34.7627C14.3382 35.3629 15.1521 35.7 16.0008 35.7H19.2008C20.0495 35.7 20.8634 35.3629 21.4635 34.7627C22.0636 34.1626 22.4008 33.3487 22.4008 32.5V29.3C22.4008 28.4513 22.0636 27.6374 21.4635 27.0373C20.8634 26.4371 20.0495 26.1 19.2008 26.1H16.0008ZM25.6008 16.5C25.6008 15.6513 25.9379 14.8374 26.538 14.2373C27.1382 13.6371 27.9521 13.3 28.8008 13.3H32.0008C32.8495 13.3 33.6634 13.6371 34.2635 14.2373C34.8636 14.8374 35.2008 15.6513 35.2008 16.5V19.7C35.2008 20.5487 34.8636 21.3626 34.2635 21.9627C33.6634 22.5629 32.8495 22.9 32.0008 22.9H28.8008C27.9521 22.9 27.1382 22.5629 26.538 21.9627C25.9379 21.3626 25.6008 20.5487 25.6008 19.7V16.5ZM25.6008 29.3C25.6008 28.4513 25.9379 27.6374 26.538 27.0373C27.1382 26.4371 27.9521 26.1 28.8008 26.1H32.0008C32.8495 26.1 33.6634 26.4371 34.2635 27.0373C34.8636 27.6374 35.2008 28.4513 35.2008 29.3V32.5C35.2008 33.3487 34.8636 34.1626 34.2635 34.7627C33.6634 35.3629 32.8495 35.7 32.0008 35.7H28.8008C27.9521 35.7 27.1382 35.3629 26.538 34.7627C25.9379 34.1626 25.6008 33.3487 25.6008 32.5V29.3Z" fill="white"/>
</svg>
