<svg width="48" height="48" viewBox="0 0 48 48" fill="none" xmlns="http://www.w3.org/2000/svg">
<rect width="48" height="48" rx="8" fill="#003DB1"/>
<path d="M24 15C24 14.7348 23.8946 14.4804 23.7071 14.2929C23.5196 14.1054 23.2652 14 23 14C22.7348 14 22.4804 14.1054 22.2929 14.2929C22.1054 14.4804 22 14.7348 22 15V26C22.0001 26.1763 22.0467 26.3494 22.1352 26.5018C22.2237 26.6542 22.3509 26.7806 22.504 26.868L29.504 30.868C29.7337 30.9921 30.0029 31.0215 30.254 30.9498C30.5051 30.8782 30.7181 30.7111 30.8477 30.4844C30.9772 30.2577 31.013 29.9893 30.9473 29.7366C30.8815 29.4839 30.7196 29.2669 30.496 29.132L24 25.42V15Z" fill="white"/>
<path d="M24 40C28.2435 40 32.3131 38.3143 35.3137 35.3137C38.3143 32.3131 40 28.2435 40 24C40 19.7565 38.3143 15.6869 35.3137 12.6863C32.3131 9.68571 28.2435 8 24 8C19.7565 8 15.6869 9.68571 12.6863 12.6863C9.68571 15.6869 8 19.7565 8 24C8 28.2435 9.68571 32.3131 12.6863 35.3137C15.6869 38.3143 19.7565 40 24 40ZM38 24C38 27.713 36.525 31.274 33.8995 33.8995C31.274 36.525 27.713 38 24 38C20.287 38 16.726 36.525 14.1005 33.8995C11.475 31.274 10 27.713 10 24C10 20.287 11.475 16.726 14.1005 14.1005C16.726 11.475 20.287 10 24 10C27.713 10 31.274 11.475 33.8995 14.1005C36.525 16.726 38 20.287 38 24Z" fill="white"/>
</svg>
