<svg width="331" height="413" viewBox="0 0 331 413" fill="none" xmlns="http://www.w3.org/2000/svg">
<path d="M254.504 80.2769H111.386C104.28 80.2769 98.5195 86.2593 98.5195 93.6391V286.623C98.5195 294.003 104.28 299.986 111.386 299.986H254.504C261.61 299.986 267.371 294.003 267.371 286.623V93.6391C267.371 86.2593 261.61 80.2769 254.504 80.2769Z" fill="#AAC2F1"/>
<path d="M254.504 302.22H111.386C107.399 302.214 103.576 300.567 100.757 297.639C97.9378 294.711 96.3515 290.742 96.3457 286.601V93.6391C96.3515 89.4984 97.9378 85.529 100.757 82.6011C103.576 79.6732 107.399 78.0257 111.386 78.0197H254.504C258.493 78.0197 262.318 79.6653 265.139 82.5945C267.959 85.5237 269.544 89.4966 269.544 93.6391V286.601C269.544 290.743 267.959 294.716 265.139 297.645C262.318 300.575 258.493 302.22 254.504 302.22ZM111.386 82.534C108.55 82.534 105.83 83.704 103.824 85.7866C101.819 87.8692 100.692 90.6938 100.692 93.6391V286.601C100.692 289.546 101.819 292.371 103.824 294.453C105.83 296.536 108.55 297.706 111.386 297.706H254.504C257.34 297.706 260.06 296.536 262.065 294.453C264.07 292.371 265.197 289.546 265.197 286.601V93.6391C265.197 90.6938 264.07 87.8692 262.065 85.7866C260.06 83.704 257.34 82.534 254.504 82.534H111.386Z" fill="#00256B"/>
<path d="M236.032 98.4693H92.9134C85.8074 98.4693 80.0469 104.452 80.0469 111.832V304.816C80.0469 312.196 85.8074 318.178 92.9134 318.178H236.032C243.138 318.178 248.898 312.196 248.898 304.816V111.832C248.898 104.452 243.138 98.4693 236.032 98.4693Z" fill="#EBF2FF"/>
<path d="M236.031 320.435H92.9129C88.9239 320.423 85.1018 318.771 82.2831 315.839C79.4645 312.908 77.8788 308.936 77.873 304.793V111.831C77.8788 107.691 79.4652 103.721 82.2845 100.794C85.1038 97.8656 88.9259 96.2181 92.9129 96.2122H236.031C240.02 96.2122 243.845 97.8578 246.666 100.787C249.486 103.716 251.071 107.689 251.071 111.831V304.793C251.071 308.938 249.487 312.913 246.667 315.846C243.847 318.779 240.022 320.429 236.031 320.435ZM92.9129 100.726C90.0787 100.732 87.3622 101.904 85.3581 103.986C83.354 106.067 82.2256 108.888 82.2198 111.831V304.793C82.2198 307.741 83.3457 310.568 85.3505 312.654C87.3552 314.74 90.075 315.915 92.9129 315.921H236.031C238.869 315.915 241.589 314.74 243.594 312.654C245.598 310.568 246.724 307.741 246.724 304.793V111.831C246.724 108.886 245.598 106.062 243.592 103.979C241.587 101.896 238.867 100.726 236.031 100.726H92.9129Z" fill="#00256B"/>
<path d="M220.578 332.353H74.3957C71.3925 332.353 68.5124 331.114 66.3888 328.908C64.2653 326.703 63.0723 323.712 63.0723 320.593V124.449C63.0694 122.903 63.3602 121.371 63.928 119.942C64.4957 118.512 65.3294 117.213 66.3811 116.119C67.4329 115.025 68.6822 114.156 70.0574 113.564C71.4326 112.972 72.9069 112.667 74.3957 112.667H194.193L231.923 148.623V320.593C231.918 323.714 230.72 326.705 228.593 328.91C226.466 331.115 223.583 332.353 220.578 332.353Z" fill="#AAC2F1"/>
<path d="M220.578 334.61H74.3952C70.8174 334.604 67.3878 333.125 64.8579 330.498C62.328 327.871 60.9042 324.309 60.8984 320.593V124.449C60.8984 120.729 62.3197 117.162 64.8502 114.529C67.3807 111.897 70.8137 110.415 74.3952 110.409H194.193C194.732 110.411 195.25 110.62 195.649 110.996L233.379 146.952C233.604 147.163 233.784 147.421 233.908 147.709C234.032 147.996 234.096 148.308 234.096 148.623V320.593C234.091 324.313 232.664 327.878 230.129 330.506C227.595 333.134 224.159 334.61 220.578 334.61ZM74.3952 114.924C71.9665 114.93 69.6392 115.936 67.9239 117.722C66.2085 119.507 65.2452 121.927 65.2452 124.449V320.593C65.251 323.112 66.2168 325.525 67.9315 327.306C69.6462 329.087 71.9703 330.09 74.3952 330.096H220.578C223.007 330.096 225.336 329.095 227.056 327.314C228.775 325.532 229.744 323.115 229.75 320.593V149.616L193.345 114.924H74.3952Z" fill="#00256B"/>
<path d="M194.193 112.667V139.978C194.191 141.141 194.409 142.293 194.836 143.367C195.263 144.442 195.891 145.419 196.682 146.241C197.474 147.063 198.414 147.715 199.449 148.158C200.484 148.602 201.593 148.829 202.713 148.826H231.924L194.193 112.667Z" fill="#AAC2F1"/>
<path d="M231.923 151.083H202.713C201.308 151.083 199.918 150.796 198.621 150.238C197.323 149.68 196.144 148.862 195.152 147.83C194.159 146.799 193.371 145.575 192.834 144.228C192.296 142.88 192.02 141.436 192.02 139.978V112.667C192.017 112.226 192.138 111.794 192.368 111.425C192.599 111.055 192.929 110.763 193.317 110.586C193.705 110.408 194.135 110.352 194.553 110.425C194.971 110.498 195.36 110.697 195.671 110.996L233.401 147.11C233.719 147.419 233.94 147.82 234.036 148.261C234.132 148.702 234.098 149.163 233.938 149.584C233.779 150.005 233.502 150.366 233.143 150.621C232.783 150.876 232.358 151.014 231.923 151.015V151.083ZM196.366 117.813V139.978C196.366 141.726 197.035 143.402 198.225 144.638C199.415 145.874 201.03 146.569 202.713 146.569H226.359L196.366 117.813Z" fill="#00256B"/>
<path d="M201.996 239.359H173.22C172.067 239.359 170.961 238.884 170.146 238.037C169.331 237.19 168.873 236.042 168.873 234.845C168.873 233.648 169.331 232.499 170.146 231.653C170.961 230.806 172.067 230.331 173.22 230.331H201.996C203.148 230.331 204.254 230.806 205.069 231.653C205.884 232.499 206.342 233.648 206.342 234.845C206.342 236.042 205.884 237.19 205.069 238.037C204.254 238.884 203.148 239.359 201.996 239.359Z" fill="white"/>
<path d="M164.483 270.372H139.359C138.206 270.372 137.1 269.897 136.285 269.05C135.47 268.203 135.012 267.055 135.012 265.858C135.012 264.661 135.47 263.512 136.285 262.666C137.1 261.819 138.206 261.344 139.359 261.344H164.483C165.636 261.344 166.741 261.819 167.557 262.666C168.372 263.512 168.83 264.661 168.83 265.858C168.83 267.055 168.372 268.203 167.557 269.05C166.741 269.897 165.636 270.372 164.483 270.372Z" fill="white"/>
<path d="M147.313 160.54H98.3468C97.194 160.54 96.0883 160.065 95.2731 159.218C94.458 158.371 94 157.223 94 156.026C94 154.829 94.458 153.681 95.2731 152.834C96.0883 151.987 97.194 151.512 98.3468 151.512H147.313C148.466 151.512 149.572 151.987 150.387 152.834C151.202 153.681 151.66 154.829 151.66 156.026C151.66 157.223 151.202 158.371 150.387 159.218C149.572 160.065 148.466 160.54 147.313 160.54Z" fill="white"/>
<path d="M201.822 198.029H98.3468C97.194 198.029 96.0883 197.553 95.2731 196.706C94.458 195.86 94 194.712 94 193.514C94 192.317 94.458 191.169 95.2731 190.322C96.0883 189.476 97.194 189 98.3468 189H201.822C202.975 189 204.081 189.476 204.896 190.322C205.711 191.169 206.169 192.317 206.169 193.514C206.169 194.712 205.711 195.86 204.896 196.706C204.081 197.553 202.975 198.029 201.822 198.029Z" fill="white"/>
<path d="M150.074 235.029H98.3468C97.194 235.029 96.0883 234.553 95.2731 233.706C94.458 232.86 94 231.712 94 230.514C94 229.317 94.458 228.169 95.2731 227.322C96.0883 226.476 97.194 226 98.3468 226H150.074C151.226 226 152.332 226.476 153.147 227.322C153.962 228.169 154.42 229.317 154.42 230.514C154.42 231.712 153.962 232.86 153.147 233.706C152.332 234.553 151.226 235.029 150.074 235.029Z" fill="white"/>
<path d="M118.386 272.029H98.3468C97.194 272.029 96.0883 271.553 95.2731 270.706C94.458 269.86 94 268.712 94 267.514C94 266.317 94.458 265.169 95.2731 264.322C96.0883 263.476 97.194 263 98.3468 263H118.386C119.538 263 120.644 263.476 121.459 264.322C122.274 265.169 122.732 266.317 122.732 267.514C122.732 268.712 122.274 269.86 121.459 270.706C120.644 271.553 119.538 272.029 118.386 272.029Z" fill="white"/>
<path d="M156.29 301.385H98.5206C97.3678 301.385 96.2622 300.909 95.447 300.063C94.6318 299.216 94.1738 298.068 94.1738 296.871C94.1738 295.674 94.6318 294.525 95.447 293.679C96.2622 292.832 97.3678 292.357 98.5206 292.357H156.29C157.442 292.357 158.548 292.832 159.363 293.679C160.178 294.525 160.636 295.674 160.636 296.871C160.636 298.068 160.178 299.216 159.363 300.063C158.548 300.909 157.442 301.385 156.29 301.385Z" fill="white"/>
<path d="M266.481 396.523H250.876C250.299 396.523 249.747 396.285 249.339 395.862C248.932 395.439 248.702 394.864 248.702 394.266C248.702 393.667 248.932 393.093 249.339 392.67C249.747 392.246 250.299 392.009 250.876 392.009H266.481C267.057 392.009 267.61 392.246 268.018 392.67C268.425 393.093 268.654 393.667 268.654 394.266C268.654 394.864 268.425 395.439 268.018 395.862C267.61 396.285 267.057 396.523 266.481 396.523ZM235.488 396.523H220.122C219.546 396.523 218.993 396.285 218.585 395.862C218.178 395.439 217.949 394.864 217.949 394.266C217.949 393.667 218.178 393.093 218.585 392.67C218.993 392.246 219.546 392.009 220.122 392.009H235.488C236.065 392.009 236.617 392.246 237.025 392.67C237.433 393.093 237.662 393.667 237.662 394.266C237.662 394.864 237.433 395.439 237.025 395.862C236.617 396.285 236.065 396.523 235.488 396.523ZM204.756 396.523H189.369C188.792 396.523 188.24 396.285 187.832 395.862C187.424 395.439 187.195 394.864 187.195 394.266C187.195 393.667 187.424 393.093 187.832 392.67C188.24 392.246 188.792 392.009 189.369 392.009H204.756C205.333 392.009 205.886 392.246 206.293 392.67C206.701 393.093 206.93 393.667 206.93 394.266C206.93 394.864 206.701 395.439 206.293 395.862C205.886 396.285 205.333 396.523 204.756 396.523ZM174.003 396.523H158.702C158.126 396.523 157.573 396.285 157.165 395.862C156.758 395.439 156.529 394.864 156.529 394.266C156.529 393.667 156.758 393.093 157.165 392.67C157.573 392.246 158.126 392.009 158.702 392.009H173.916C174.492 392.009 175.045 392.246 175.453 392.67C175.86 393.093 176.089 393.667 176.089 394.266C176.089 394.864 175.86 395.439 175.453 395.862C175.045 396.285 174.492 396.523 173.916 396.523H174.003ZM143.249 396.523H127.883C127.307 396.523 126.754 396.285 126.347 395.862C125.939 395.439 125.71 394.864 125.71 394.266C125.71 393.667 125.939 393.093 126.347 392.67C126.754 392.246 127.307 392.009 127.883 392.009H143.249C143.826 392.009 144.379 392.246 144.786 392.67C145.194 393.093 145.423 393.667 145.423 394.266C145.423 394.864 145.194 395.439 144.786 395.862C144.379 396.285 143.826 396.523 143.249 396.523ZM112.517 396.523H97.1298C96.5534 396.523 96.0006 396.285 95.593 395.862C95.1854 395.439 94.9564 394.864 94.9564 394.266C94.9564 393.667 95.1854 393.093 95.593 392.67C96.0006 392.246 96.5534 392.009 97.1298 392.009H112.517C113.094 392.009 113.647 392.246 114.054 392.67C114.462 393.093 114.691 393.667 114.691 394.266C114.691 394.864 114.462 395.439 114.054 395.862C113.647 396.285 113.094 396.523 112.517 396.523ZM81.7639 396.523H66.398C65.8216 396.523 65.2687 396.285 64.8611 395.862C64.4536 395.439 64.2246 394.864 64.2246 394.266C64.2246 393.667 64.4536 393.093 64.8611 392.67C65.2687 392.246 65.8216 392.009 66.398 392.009H81.7639C82.3403 392.009 82.8931 392.246 83.3007 392.67C83.7083 393.093 83.9373 393.667 83.9373 394.266C83.9373 394.864 83.7083 395.439 83.3007 395.862C82.8931 396.285 82.3403 396.523 81.7639 396.523ZM51.119 395.011H50.6409C45.4514 393.773 40.4394 391.838 35.7313 389.255C35.2212 388.974 34.8396 388.493 34.6704 387.92C34.5013 387.346 34.5585 386.726 34.8294 386.197C35.1003 385.667 35.5628 385.27 36.1151 385.095C36.6674 384.919 37.2642 384.979 37.7743 385.26C42.1425 387.668 46.7975 389.466 51.6189 390.609C52.1953 390.678 52.7218 390.982 53.0825 391.454C53.4432 391.926 53.6086 392.527 53.5423 393.126C53.4761 393.725 53.1835 394.271 52.729 394.646C52.2746 395.021 51.6954 395.192 51.119 395.124V395.011ZM281.651 394.401C281.366 394.44 281.076 394.42 280.798 394.342C280.52 394.264 280.26 394.13 280.032 393.948C279.804 393.765 279.612 393.538 279.469 393.279C279.325 393.02 279.232 392.734 279.195 392.438C279.158 392.141 279.178 391.84 279.253 391.551C279.328 391.263 279.456 390.992 279.632 390.756C279.808 390.519 280.026 390.32 280.276 390.171C280.525 390.022 280.801 389.926 281.086 389.887C285.854 388.531 290.434 386.543 294.713 383.973C294.959 383.788 295.24 383.657 295.537 383.591C295.835 383.525 296.142 383.525 296.44 383.59C296.737 383.655 297.018 383.785 297.265 383.97C297.511 384.155 297.718 384.391 297.871 384.664C298.023 384.937 298.119 385.241 298.152 385.555C298.185 385.869 298.154 386.186 298.062 386.487C297.969 386.788 297.816 387.065 297.614 387.301C297.412 387.536 297.164 387.725 296.887 387.856C292.299 390.652 287.373 392.8 282.238 394.243L281.651 394.401ZM24.2558 380.272C23.7067 380.27 23.1787 380.052 22.7779 379.662C18.8793 375.909 15.4673 371.645 12.6281 366.977C12.4754 366.727 12.3717 366.447 12.323 366.155C12.2742 365.863 12.2813 365.564 12.3438 365.275C12.4064 364.986 12.5232 364.712 12.6876 364.47C12.852 364.227 13.0607 364.021 13.3019 363.862C13.5431 363.704 13.812 363.596 14.0932 363.545C14.3745 363.495 14.6626 363.502 14.9411 363.567C15.2196 363.632 15.483 363.753 15.7164 363.924C15.9498 364.095 16.1485 364.312 16.3012 364.562C18.9332 368.903 22.1047 372.864 25.7337 376.344C25.9447 376.546 26.115 376.79 26.2348 377.061C26.3545 377.332 26.4214 377.625 26.4315 377.923C26.4416 378.221 26.3948 378.518 26.2936 378.798C26.1925 379.077 26.0391 379.332 25.8424 379.549C25.6397 379.776 25.3943 379.957 25.1214 380.082C24.8484 380.206 24.5538 380.271 24.2558 380.272ZM307.928 378.534C307.385 378.502 306.873 378.261 306.493 377.856C306.289 377.647 306.128 377.397 306.017 377.122C305.907 376.847 305.85 376.552 305.85 376.254C305.85 375.956 305.907 375.661 306.017 375.386C306.128 375.111 306.289 374.861 306.493 374.651C309.977 371.011 312.987 366.914 315.448 362.463C315.736 361.942 316.211 361.561 316.77 361.405C317.328 361.248 317.924 361.328 318.425 361.628C318.927 361.927 319.293 362.421 319.444 363.001C319.595 363.581 319.517 364.199 319.229 364.72C316.568 369.503 313.325 373.911 309.579 377.834C309.367 378.065 309.111 378.247 308.826 378.368C308.541 378.488 308.235 378.545 307.928 378.534ZM7.99881 353.57C7.51941 353.593 7.0462 353.45 6.65304 353.164C6.25988 352.878 5.96889 352.465 5.82542 351.99C4.25128 346.71 3.35248 341.239 3.15213 335.716C3.12907 335.117 3.33595 334.534 3.72723 334.093C4.11852 333.653 4.66217 333.392 5.23859 333.368C5.81501 333.345 6.37699 333.559 6.80088 333.966C7.22478 334.372 7.47587 334.937 7.49892 335.535C7.67641 340.661 8.50962 345.739 9.97661 350.636C10.1464 351.207 10.0906 351.826 9.82164 352.355C9.55267 352.884 9.09248 353.28 8.54216 353.457C8.3819 353.52 8.21339 353.558 8.04227 353.57H7.99881ZM323.011 351.155C322.83 351.177 322.648 351.177 322.468 351.155C321.912 351.001 321.438 350.625 321.148 350.109C320.859 349.593 320.779 348.979 320.924 348.401C322.168 343.472 322.796 338.397 322.794 333.301C322.794 332.702 323.023 332.128 323.43 331.705C323.838 331.281 324.391 331.044 324.967 331.044C325.543 331.044 326.096 331.281 326.504 331.705C326.911 332.128 327.14 332.702 327.14 333.301C327.146 338.786 326.466 344.249 325.119 349.552C324.985 350.013 324.712 350.417 324.34 350.706C323.969 350.994 323.518 351.151 323.054 351.155H323.011ZM5.4342 321.925C4.85778 321.925 4.30497 321.687 3.89738 321.264C3.48979 320.84 3.26081 320.266 3.26081 319.668V303.687C3.26081 303.089 3.48979 302.515 3.89738 302.091C4.30497 301.668 4.85778 301.43 5.4342 301.43C6.01062 301.43 6.56342 301.668 6.97101 302.091C7.3786 302.515 7.6076 303.089 7.6076 303.687V319.668C7.6076 320.266 7.3786 320.84 6.97101 321.264C6.56342 321.687 6.01062 321.925 5.4342 321.925ZM324.924 319.397C324.347 319.397 323.794 319.159 323.387 318.736C322.979 318.313 322.75 317.738 322.75 317.14V301.114C322.75 300.516 322.979 299.941 323.387 299.518C323.794 299.095 324.347 298.857 324.924 298.857C325.5 298.857 326.053 299.095 326.46 299.518C326.868 299.941 327.097 300.516 327.097 301.114V317.072C327.115 317.667 326.905 318.245 326.514 318.68C326.124 319.116 325.583 319.373 325.01 319.397H324.924ZM5.4342 290.054C4.85778 290.054 4.30497 289.816 3.89738 289.393C3.48979 288.97 3.26081 288.396 3.26081 287.797V271.772C3.26081 271.173 3.48979 270.599 3.89738 270.175C4.30497 269.752 4.85778 269.514 5.4342 269.514C6.01062 269.514 6.56342 269.752 6.97101 270.175C7.3786 270.599 7.6076 271.173 7.6076 271.772V287.729C7.6076 288.026 7.55137 288.319 7.44215 288.593C7.33292 288.867 7.17283 289.116 6.97101 289.325C6.76919 289.535 6.52961 289.701 6.26593 289.815C6.00224 289.928 5.71962 289.987 5.4342 289.987V290.054ZM324.924 287.549C324.347 287.549 323.794 287.311 323.387 286.888C322.979 286.464 322.75 285.89 322.75 285.292V269.311C322.75 268.713 322.979 268.139 323.387 267.715C323.794 267.292 324.347 267.054 324.924 267.054C325.5 267.054 326.053 267.292 326.46 267.715C326.868 268.139 327.097 268.713 327.097 269.311V285.314C327.097 285.898 326.88 286.458 326.491 286.879C326.102 287.3 325.572 287.548 325.01 287.571L324.924 287.549ZM5.4342 258.206C4.85778 258.206 4.30497 257.968 3.89738 257.545C3.48979 257.122 3.26081 256.548 3.26081 255.949V239.991C3.26081 239.393 3.48979 238.818 3.89738 238.395C4.30497 237.972 4.85778 237.734 5.4342 237.734C6.01062 237.734 6.56342 237.972 6.97101 238.395C7.3786 238.818 7.6076 239.393 7.6076 239.991V255.949C7.56903 256.52 7.32313 257.054 6.91964 257.444C6.51616 257.834 5.98521 258.05 5.4342 258.048V258.206ZM324.924 255.701C324.347 255.701 323.794 255.463 323.387 255.04C322.979 254.616 322.75 254.042 322.75 253.444V237.486C322.75 236.887 322.979 236.313 323.387 235.89C323.794 235.466 324.347 235.229 324.924 235.229C325.5 235.229 326.053 235.466 326.46 235.89C326.868 236.313 327.097 236.887 327.097 237.486V253.444C327.06 253.999 326.826 254.521 326.441 254.908C326.056 255.296 325.546 255.522 325.01 255.543L324.924 255.701ZM5.4342 226.358C4.85778 226.358 4.30497 226.12 3.89738 225.697C3.48979 225.274 3.26081 224.7 3.26081 224.101V207.895C3.26081 207.296 3.48979 206.722 3.89738 206.299C4.30497 205.875 4.85778 205.638 5.4342 205.638C6.01062 205.638 6.56342 205.875 6.97101 206.299C7.3786 206.722 7.6076 207.296 7.6076 207.895V223.875C7.6076 224.172 7.55137 224.465 7.44215 224.739C7.33292 225.013 7.17283 225.262 6.97101 225.471C6.76919 225.681 6.52961 225.847 6.26593 225.961C6.00224 226.074 5.71962 226.132 5.4342 226.132V226.358ZM324.924 223.83C324.347 223.83 323.794 223.592 323.387 223.169C322.979 222.746 322.75 222.172 322.75 221.573V205.615C322.75 205.016 322.979 204.442 323.387 204.019C323.794 203.596 324.347 203.358 324.924 203.358C325.5 203.358 326.053 203.596 326.46 204.019C326.868 204.442 327.097 205.016 327.097 205.615V221.573C327.045 222.116 326.804 222.622 326.421 222.995C326.037 223.369 325.536 223.585 325.01 223.604L324.924 223.83ZM5.4342 194.487C4.85778 194.487 4.30497 194.25 3.89738 193.826C3.48979 193.403 3.26081 192.829 3.26081 192.23V176.272C3.26081 175.674 3.48979 175.1 3.89738 174.676C4.30497 174.253 4.85778 174.015 5.4342 174.015C6.01062 174.015 6.56342 174.253 6.97101 174.676C7.3786 175.1 7.6076 175.674 7.6076 176.272V192.23C7.53863 192.777 7.27953 193.278 6.87917 193.64C6.47881 194.002 5.96486 194.199 5.4342 194.194V194.487ZM324.924 191.982C324.347 191.982 323.794 191.744 323.387 191.321C322.979 190.898 322.75 190.324 322.75 189.725V173.744C322.75 173.146 322.979 172.572 323.387 172.148C323.794 171.725 324.347 171.487 324.924 171.487C325.5 171.487 326.053 171.725 326.46 172.148C326.868 172.572 327.097 173.146 327.097 173.744V189.725C327.03 190.256 326.784 190.745 326.401 191.105C326.019 191.465 325.526 191.672 325.01 191.689L324.924 191.982ZM5.4342 162.639C4.85778 162.639 4.30497 162.402 3.89738 161.978C3.48979 161.555 3.26081 160.981 3.26081 160.382V144.424C3.26081 143.826 3.48979 143.252 3.89738 142.828C4.30497 142.405 4.85778 142.167 5.4342 142.167C6.01062 142.167 6.56342 142.405 6.97101 142.828C7.3786 143.252 7.6076 143.826 7.6076 144.424V160.382C7.51962 160.912 7.25234 161.392 6.85388 161.736C6.45542 162.079 5.95198 162.263 5.4342 162.256V162.639ZM324.924 160.134C324.347 160.134 323.794 159.896 323.387 159.473C322.979 159.05 322.75 158.475 322.75 157.877V141.535C322.75 140.937 322.979 140.363 323.387 139.939C323.794 139.516 324.347 139.278 324.924 139.278C325.5 139.278 326.053 139.516 326.46 139.939C326.868 140.363 327.097 140.937 327.097 141.535V157.493C327.097 158.076 326.88 158.637 326.491 159.058C326.102 159.479 325.572 159.727 325.01 159.75L324.924 160.134ZM5.4342 130.791C4.85778 130.791 4.30497 130.554 3.89738 130.13C3.48979 129.707 3.26081 129.133 3.26081 128.534V112.554C3.26081 111.955 3.48979 111.381 3.89738 110.958C4.30497 110.534 4.85778 110.297 5.4342 110.297C6.01062 110.297 6.56342 110.534 6.97101 110.958C7.3786 111.381 7.6076 111.955 7.6076 112.554V128.534C7.50599 129.052 7.23284 129.516 6.83572 129.846C6.4386 130.176 5.94266 130.351 5.4342 130.34V130.791ZM324.924 128.263C324.347 128.263 323.794 128.026 323.387 127.602C322.979 127.179 322.75 126.605 322.75 126.006V110.048C322.75 109.45 322.979 108.876 323.387 108.452C323.794 108.029 324.347 107.791 324.924 107.791C325.5 107.791 326.053 108.029 326.46 108.452C326.868 108.876 327.097 109.45 327.097 110.048V126.006C326.998 126.509 326.738 126.961 326.359 127.289C325.979 127.617 325.504 127.802 325.01 127.812L324.924 128.263ZM5.4342 98.9207C4.85778 98.9207 4.30497 98.6829 3.89738 98.2596C3.48979 97.8363 3.26081 97.2622 3.26081 96.6636V80.1866C3.26081 79.5879 3.48979 79.0138 3.89738 78.5905C4.30497 78.1672 4.85778 77.9294 5.4342 77.9294C6.01062 77.9294 6.56342 78.1672 6.97101 78.5905C7.3786 79.0138 7.6076 79.5879 7.6076 80.1866V96.1444C7.6076 96.4409 7.55137 96.7344 7.44215 97.0082C7.33292 97.2821 7.17283 97.5309 6.97101 97.7405C6.76919 97.9501 6.52961 98.1163 6.26593 98.2297C6.00224 98.3432 5.71962 98.4016 5.4342 98.4016V98.9207ZM324.924 96.4153C324.347 96.4153 323.794 96.1775 323.387 95.7542C322.979 95.3309 322.75 94.7568 322.75 94.1582V80.6154C322.75 79.8028 322.75 78.9903 322.75 78.1777C322.73 77.5791 322.94 76.9966 323.333 76.5585C323.726 76.1204 324.271 75.8625 324.847 75.8416C325.424 75.8206 325.985 76.0383 326.407 76.4468C326.828 76.8553 327.077 77.4211 327.097 78.0197C327.097 78.8774 327.097 79.7351 327.097 80.6154V94.1582C326.986 94.648 326.72 95.085 326.342 95.3999C325.964 95.7148 325.495 95.8895 325.01 95.8962L324.924 96.4153ZM7.32505 67.0726H6.75996C6.20431 66.919 5.72994 66.5429 5.44072 66.0268C5.1515 65.5107 5.07099 64.8966 5.21685 64.3189C6.59398 58.9783 8.63994 53.8485 11.3024 49.0608C11.4451 48.8029 11.6353 48.5767 11.8622 48.3952C12.089 48.2137 12.3481 48.0803 12.6246 48.0028C12.9011 47.9252 13.1896 47.905 13.4736 47.9432C13.7576 47.9815 14.0316 48.0774 14.2799 48.2256C14.5282 48.3738 14.746 48.5714 14.9208 48.807C15.0956 49.0426 15.224 49.3116 15.2987 49.5988C15.3733 49.8859 15.3928 50.1855 15.356 50.4805C15.3192 50.7755 15.2268 51.06 15.0841 51.3179C12.6049 55.7544 10.7046 60.5134 9.43326 65.4701C9.23714 65.8437 8.9433 66.1521 8.58567 66.3598C8.22804 66.5675 7.82117 66.6659 7.41199 66.6438L7.32505 67.0726ZM322.359 64.2512C321.895 64.2478 321.445 64.0905 321.073 63.8021C320.702 63.5138 320.429 63.1096 320.294 62.6487C318.809 57.7547 316.72 53.0812 314.078 48.7448C313.926 48.4943 313.822 48.215 313.773 47.923C313.724 47.6309 313.731 47.3317 313.794 47.0424C313.857 46.7532 313.973 46.4796 314.138 46.2372C314.302 45.9949 314.511 45.7885 314.752 45.6299C314.993 45.4713 315.262 45.3637 315.543 45.313C315.825 45.2623 316.113 45.2697 316.391 45.3347C316.67 45.3996 316.933 45.521 317.167 45.6917C317.4 45.8624 317.599 46.0792 317.751 46.3296C320.608 50.9974 322.859 56.0368 324.445 61.317C324.609 61.8856 324.549 62.4982 324.281 63.022C324.013 63.5458 323.556 63.9388 323.011 64.1158C322.802 64.1954 322.582 64.2411 322.359 64.2512ZM22.604 39.2874C22.318 39.2891 22.0345 39.2322 21.7696 39.1199C21.5048 39.0075 21.264 38.842 21.0609 38.6328C20.6561 38.2099 20.4289 37.6379 20.4289 37.0416C20.4289 36.4452 20.6561 35.8732 21.0609 35.4503C24.8179 31.5332 29.0564 28.1483 33.6666 25.3835C34.163 25.0873 34.7519 25.0065 35.3054 25.1587C35.8588 25.3108 36.3321 25.6836 36.6224 26.1961C36.767 26.4523 36.8615 26.7357 36.9005 27.03C36.9394 27.3242 36.922 27.6236 36.8493 27.9109C36.7766 28.1981 36.6501 28.4677 36.4769 28.7041C36.3037 28.9404 36.0872 29.139 35.84 29.2883C31.5659 31.8591 27.6348 35.0007 24.1471 38.6328C23.9441 38.842 23.7032 39.0075 23.4384 39.1199C23.1736 39.2322 22.8901 39.2891 22.604 39.2874ZM306.102 37.5494C305.556 37.5536 305.028 37.3441 304.624 36.9626C300.995 33.4763 296.939 30.5015 292.562 28.1146C292.052 27.8333 291.67 27.353 291.501 26.7794C291.332 26.2059 291.389 25.586 291.66 25.0562C291.931 24.5264 292.393 24.1301 292.945 23.9544C293.498 23.7788 294.095 23.8381 294.605 24.1195C299.331 26.6933 303.715 29.8953 307.645 33.6446C308.068 34.0493 308.319 34.6114 308.343 35.2079C308.367 35.8044 308.163 36.3866 307.775 36.8271C307.565 37.0696 307.306 37.2617 307.017 37.3903C306.728 37.5189 306.416 37.5809 306.102 37.572V37.5494ZM48.9021 23.4875C48.6167 23.526 48.3268 23.5058 48.0489 23.428C47.771 23.3501 47.5106 23.2162 47.2826 23.0339C46.822 22.6656 46.5211 22.1224 46.4462 21.5238C46.3713 20.9252 46.5284 20.3202 46.883 19.8418C47.2376 19.3635 47.7606 19.0511 48.3371 18.9733C53.4697 17.4978 58.7686 16.7387 64.0942 16.7161C64.6706 16.7161 65.2234 16.9539 65.631 17.3772C66.0386 17.8005 66.2676 18.3746 66.2676 18.9733C66.2676 19.5719 66.0386 20.146 65.631 20.5693C65.2234 20.9926 64.6706 21.2304 64.0942 21.2304C59.1546 21.228 54.2364 21.9035 49.4672 23.2392L48.9021 23.4875ZM279.282 22.9006H278.804C274.709 21.9511 270.525 21.4742 266.329 21.4787H264.025C263.449 21.4787 262.896 21.2409 262.488 20.8176C262.081 20.3943 261.852 19.8202 261.852 19.2215C261.852 18.6229 262.081 18.0488 262.488 17.6255C262.896 17.2022 263.449 16.9644 264.025 16.9644H266.329C270.847 16.9629 275.351 17.4776 279.76 18.4993C280.337 18.5651 280.864 18.8661 281.227 19.3359C281.59 19.8058 281.758 20.406 281.695 21.0047C281.631 21.6033 281.341 22.1512 280.889 22.528C280.437 22.9047 279.859 23.0794 279.282 23.0135V22.9006ZM248.659 21.411H233.271C232.695 21.411 232.142 21.1732 231.735 20.7499C231.327 20.3266 231.098 19.7525 231.098 19.1538C231.098 18.5552 231.327 17.9811 231.735 17.5578C232.142 17.1345 232.695 16.8967 233.271 16.8967H248.659C249.235 16.8967 249.788 17.1345 250.196 17.5578C250.603 17.9811 250.832 18.5552 250.832 19.1538C250.832 19.7525 250.603 20.3266 250.196 20.7499C249.788 21.1732 249.235 21.411 248.659 21.411ZM217.905 21.411H202.54C201.963 21.411 201.41 21.1732 201.003 20.7499C200.595 20.3266 200.366 19.7525 200.366 19.1538C200.366 18.5552 200.595 17.9811 201.003 17.5578C201.41 17.1345 201.963 16.8967 202.54 16.8967H217.905C218.482 16.8967 219.035 17.1345 219.442 17.5578C219.85 17.9811 220.079 18.5552 220.079 19.1538C220.079 19.7525 219.85 20.3266 219.442 20.7499C219.035 21.1732 218.482 21.411 217.905 21.411ZM187.152 21.411H171.743C171.166 21.411 170.613 21.1732 170.206 20.7499C169.798 20.3266 169.569 19.7525 169.569 19.1538C169.569 18.5552 169.798 17.9811 170.206 17.5578C170.613 17.1345 171.166 16.8967 171.743 16.8967H187.108C187.685 16.8967 188.238 17.1345 188.645 17.5578C189.053 17.9811 189.282 18.5552 189.282 19.1538C189.282 19.7525 189.053 20.3266 188.645 20.7499C188.238 21.1732 187.685 21.411 187.108 21.411H187.152ZM156.42 21.411H141.032C140.456 21.411 139.903 21.1732 139.496 20.7499C139.088 20.3266 138.859 19.7525 138.859 19.1538C138.859 18.5552 139.088 17.9811 139.496 17.5578C139.903 17.1345 140.456 16.8967 141.032 16.8967H156.42C156.996 16.8967 157.549 17.1345 157.957 17.5578C158.364 17.9811 158.593 18.5552 158.593 19.1538C158.593 19.7525 158.364 20.3266 157.957 20.7499C157.549 21.1732 156.996 21.411 156.42 21.411ZM125.667 21.411H110.301C109.724 21.411 109.171 21.1732 108.764 20.7499C108.356 20.3266 108.127 19.7525 108.127 19.1538C108.127 18.5552 108.356 17.9811 108.764 17.5578C109.171 17.1345 109.724 16.8967 110.301 16.8967H125.667C126.243 16.8967 126.796 17.1345 127.203 17.5578C127.611 17.9811 127.84 18.5552 127.84 19.1538C127.84 19.7525 127.611 20.3266 127.203 20.7499C126.796 21.1732 126.243 21.411 125.667 21.411ZM94.9129 21.411H79.547C78.9706 21.411 78.4178 21.1732 78.0102 20.7499C77.6026 20.3266 77.3736 19.7525 77.3736 19.1538C77.3736 18.5552 77.6026 17.9811 78.0102 17.5578C78.4178 17.1345 78.9706 16.8967 79.547 16.8967H94.9129C95.4893 16.8967 96.0422 17.1345 96.4498 17.5578C96.8573 17.9811 97.0863 18.5552 97.0863 19.1538C97.0863 19.7525 96.8573 20.3266 96.4498 20.7499C96.0422 21.1732 95.4893 21.411 94.9129 21.411Z" fill="#CCDBF7"/>
<path d="M5.43352 114.675C3.99247 114.675 2.61044 114.081 1.59146 113.023C0.572484 111.964 3.31117e-05 110.529 3.31117e-05 109.033V79.9157C-0.00853367 71.1508 1.6453 62.4701 4.86713 54.369C8.08895 46.2679 12.8156 38.9052 18.7774 32.7013C24.7391 26.4973 31.8191 21.5735 39.6131 18.2112C47.4071 14.8488 55.7625 13.1136 64.2022 13.1047H111.626C113.067 13.1047 114.449 13.6992 115.468 14.7575C116.487 15.8157 117.059 17.251 117.059 18.7476C117.059 20.2441 116.487 21.6794 115.468 22.7376C114.449 23.7959 113.067 24.3904 111.626 24.3904H64.2022C50.0471 24.4203 36.4825 30.2856 26.4896 40.6973C16.4967 51.1091 10.8932 65.2152 10.9105 79.9157V109.258C10.8541 110.723 10.2508 112.108 9.22856 113.119C8.20628 114.13 6.8452 114.688 5.43352 114.675Z" fill="#00256B"/>
<path d="M101.628 38.4072C100.892 38.4127 100.164 38.2613 99.487 37.9624C98.8103 37.6634 98.1999 37.2232 97.6938 36.6692C96.7012 35.5877 96.1622 34.1416 96.1948 32.648C96.2274 31.1544 96.829 29.7351 97.8677 28.7015L107.8 18.7927L98.5197 9.7642C97.9988 9.25734 97.5792 8.64889 97.2847 7.9736C96.9903 7.29831 96.8267 6.56941 96.8035 5.8285C96.7803 5.08758 96.8979 4.34917 97.1495 3.65543C97.401 2.96169 97.7817 2.32621 98.2698 1.78526C98.7578 1.24431 99.3437 0.808494 99.994 0.50269C100.644 0.196886 101.346 0.0270882 102.06 0.0029849C102.773 -0.0211184 103.484 0.100947 104.152 0.362213C104.82 0.62348 105.432 1.01883 105.953 1.52569L119.406 14.6396C119.942 15.1669 120.369 15.8021 120.661 16.5065C120.953 17.2108 121.103 17.9695 121.103 18.7363C121.103 19.503 120.953 20.2618 120.661 20.9661C120.369 21.6705 119.942 22.3057 119.406 22.833L105.344 36.8497C104.339 37.8378 103.011 38.3943 101.628 38.4072Z" fill="#00256B"/>
<path d="M266.242 399.909H218.818C217.377 399.909 215.995 399.314 214.976 398.256C213.957 397.198 213.385 395.762 213.385 394.266C213.385 392.769 213.957 391.334 214.976 390.276C215.995 389.218 217.377 388.623 218.818 388.623H266.242C280.374 388.593 293.919 382.746 303.908 372.364C313.897 361.982 319.516 347.91 319.533 333.233V303.89C319.533 302.394 320.106 300.959 321.125 299.9C322.144 298.842 323.526 298.248 324.967 298.248C326.408 298.248 327.79 298.842 328.809 299.9C329.828 300.959 330.4 302.394 330.4 303.89V333.233C330.383 350.903 323.62 367.845 311.592 380.344C299.565 392.843 283.256 399.879 266.242 399.909Z" fill="#00256B"/>
<path d="M228.251 413C226.873 412.999 225.546 412.459 224.534 411.488L211.081 398.396C210.543 397.872 210.113 397.24 209.817 396.537C209.522 395.835 209.368 395.077 209.364 394.311C209.353 393.543 209.496 392.781 209.784 392.074C210.072 391.367 210.499 390.73 211.037 390.203L225.099 376.186C225.614 375.673 226.222 375.271 226.887 375.002C227.552 374.733 228.261 374.603 228.975 374.618C229.688 374.634 230.391 374.796 231.045 375.094C231.698 375.392 232.288 375.821 232.782 376.356C233.276 376.891 233.663 377.521 233.923 378.212C234.182 378.902 234.307 379.639 234.292 380.38C234.277 381.121 234.121 381.852 233.834 382.53C233.547 383.209 233.134 383.822 232.619 384.334L222.687 394.221L231.967 403.249C232.759 404.024 233.309 405.027 233.546 406.13C233.782 407.233 233.695 408.384 233.294 409.434C232.894 410.484 232.199 411.386 231.3 412.022C230.401 412.657 229.338 412.998 228.251 413Z" fill="#00256B"/>
<path d="M274.239 288.045C274.19 286.728 273.726 285.464 272.916 284.448C272.107 283.432 270.999 282.722 269.762 282.425C267.588 281.929 265.415 281.567 263.242 281.229C262.941 281.205 262.655 281.083 262.425 280.88C262.194 280.677 262.031 280.405 261.959 280.1C261.307 278.295 260.568 276.534 259.786 274.751C259.645 274.556 259.568 274.318 259.568 274.074C259.568 273.83 259.645 273.592 259.786 273.397C261.09 271.523 262.437 269.65 263.654 267.709C264.361 266.612 264.695 265.302 264.605 263.986C264.514 262.67 264.004 261.422 263.155 260.441C261.155 258.184 259.003 255.927 256.917 253.827C255.876 252.623 254.435 251.872 252.883 251.726C251.33 251.579 249.782 252.048 248.549 253.037C246.919 254.211 245.289 255.43 243.681 256.649C243.506 256.812 243.285 256.914 243.05 256.938C242.816 256.962 242.58 256.909 242.377 256.784C240.53 255.949 238.66 255.137 236.77 254.392C236.539 254.33 236.332 254.195 236.18 254.004C236.028 253.814 235.937 253.578 235.922 253.331C235.618 251.254 235.292 249.2 234.922 247.124C234.724 245.666 234.039 244.326 232.986 243.34C231.933 242.354 230.58 241.784 229.163 241.729C226.076 241.729 222.99 241.729 219.926 241.729C218.615 241.745 217.349 242.222 216.334 243.083C215.319 243.945 214.616 245.139 214.34 246.469C213.84 248.726 213.492 251.141 213.123 253.489C213.104 253.735 213.013 253.969 212.861 254.159C212.709 254.349 212.505 254.485 212.275 254.55C210.471 255.294 208.689 256.084 206.929 256.807C206.747 256.938 206.531 257.008 206.309 257.008C206.088 257.008 205.872 256.938 205.69 256.807C203.908 255.43 202.126 254.053 200.278 252.789C199.219 252.036 197.948 251.674 196.668 251.76C195.387 251.846 194.172 252.375 193.215 253.263C190.867 255.52 188.585 257.777 186.434 260.238C185.409 261.309 184.802 262.737 184.729 264.245C184.657 265.754 185.125 267.237 186.042 268.408C187.238 270.214 188.477 271.975 189.672 273.78C189.826 274.069 189.865 274.41 189.781 274.728C189.02 276.737 188.259 278.723 187.433 280.71C187.284 281.01 187.026 281.237 186.716 281.342C184.717 281.725 182.717 282.064 180.718 282.38C179.306 282.543 177.994 283.219 177.016 284.288C176.037 285.358 175.455 286.753 175.371 288.226C175.371 291.567 175.371 294.997 175.371 298.225C175.418 299.517 175.867 300.759 176.65 301.764C177.434 302.77 178.51 303.484 179.718 303.8C181.891 304.319 184.325 304.68 186.651 305.087C186.873 305.11 187.083 305.202 187.253 305.351C187.424 305.5 187.547 305.699 187.607 305.922C188.325 307.818 189.107 309.691 189.911 311.565C190.012 311.752 190.055 311.967 190.036 312.18C190.016 312.394 189.935 312.596 189.802 312.761C188.585 314.476 187.368 316.214 186.216 317.952C185.302 319.194 184.866 320.745 184.995 322.302C185.124 323.859 185.807 325.31 186.912 326.371C188.824 328.425 190.78 330.457 192.758 332.443C193.797 333.637 195.238 334.371 196.784 334.493C198.329 334.615 199.86 334.115 201.061 333.098C202.734 331.879 204.408 330.66 206.059 329.396C206.217 329.275 206.407 329.21 206.603 329.21C206.798 329.21 206.989 329.275 207.146 329.396C208.863 330.163 210.558 330.931 212.319 331.653C212.584 331.736 212.818 331.902 212.989 332.128C213.16 332.354 213.26 332.63 213.275 332.917C213.558 334.971 213.884 337.003 214.231 339.056C214.414 340.473 215.065 341.781 216.071 342.756C217.077 343.731 218.378 344.314 219.752 344.406C222.99 344.541 226.272 344.406 229.467 344.406C230.735 344.341 231.948 343.847 232.921 342.999C233.895 342.151 234.574 340.997 234.857 339.711C235.335 337.454 235.661 335.197 236.031 332.94C236.04 332.665 236.133 332.401 236.298 332.186C236.462 331.971 236.688 331.816 236.943 331.743C238.747 331.021 240.53 330.231 242.312 329.486C242.498 329.383 242.709 329.341 242.919 329.365C243.128 329.389 243.326 329.479 243.485 329.622C245.137 330.886 246.811 332.105 248.484 333.346C249.653 334.216 251.067 334.661 252.505 334.61C253.848 334.594 255.136 334.054 256.113 333.098C258.286 331.021 260.264 328.854 262.329 326.71C263.528 325.631 264.278 324.11 264.42 322.468C264.562 320.826 264.085 319.191 263.089 317.907C261.937 316.192 260.786 314.522 259.612 312.829C259.474 312.667 259.389 312.464 259.369 312.249C259.349 312.034 259.397 311.818 259.503 311.632C260.286 309.759 261.046 307.863 261.677 305.967C261.74 305.731 261.872 305.522 262.055 305.368C262.238 305.214 262.463 305.124 262.698 305.109C264.698 304.793 266.697 304.455 268.697 304.094C270.105 303.898 271.402 303.194 272.36 302.104C273.318 301.015 273.876 299.609 273.935 298.135C274.326 294.591 274.304 291.318 274.239 288.045ZM224.816 315.131C220.6 315.122 216.481 313.815 212.98 311.376C209.479 308.936 206.753 305.474 205.147 301.426C203.54 297.378 203.126 292.926 203.955 288.633C204.784 284.34 206.82 280.399 209.806 277.308C212.792 274.216 216.593 272.114 220.729 271.266C224.865 270.417 229.151 270.862 233.044 272.542C236.937 274.223 240.262 277.065 242.601 280.708C244.939 284.351 246.185 288.633 246.18 293.011C246.178 295.922 245.623 298.804 244.547 301.492C243.472 304.18 241.898 306.621 239.914 308.678C237.93 310.734 235.576 312.364 232.985 313.475C230.395 314.586 227.619 315.156 224.816 315.154V315.131Z" fill="white" stroke="#AAC2F1" stroke-width="3" stroke-linecap="round" stroke-linejoin="round"/>
</svg>
