<svg width="24" height="24" viewBox="0 0 24 24" fill="none" xmlns="http://www.w3.org/2000/svg">
<path d="M23.04 4.18537H12.27L8.751 0.0804877C8.70623 0.0293698 8.64733 0.000641329 8.586 0H0.96C0.429 0 0 0.523171 0 1.17073V22.8293C0 23.4768 0.429 24 0.96 24H23.04C23.571 24 24 23.4768 24 22.8293V5.3561C24 4.70854 23.571 4.18537 23.04 4.18537ZM15.6 14.378C15.6 14.5171 15.498 14.6341 15.375 14.6341H12.84V17.7402C12.84 17.8829 12.744 18 12.63 18H11.37C11.256 18 11.16 17.8829 11.16 17.7402V14.6341H8.625C8.502 14.6341 8.4 14.5171 8.4 14.378V12.8415C8.4 12.7024 8.502 12.5854 8.625 12.5854H11.16V9.47927C11.16 9.33659 11.256 9.21951 11.37 9.21951H12.63C12.744 9.21951 12.84 9.33659 12.84 9.47927V12.5854H15.375C15.498 12.5854 15.6 12.7024 15.6 12.8415V14.378Z" fill="black"/>
</svg>
