<svg width="48" height="49" viewBox="0 0 48 49" fill="none" xmlns="http://www.w3.org/2000/svg">
<rect y="0.5" width="48" height="48" rx="8" fill="#003DB1"/>
<path d="M24.1968 22.8437C24.1734 22.8139 24.1435 22.7897 24.1094 22.7731C24.0753 22.7565 24.0379 22.7478 23.9999 22.7478C23.962 22.7478 23.9245 22.7565 23.8904 22.7731C23.8563 22.7897 23.8264 22.8139 23.803 22.8437L20.303 27.2719C20.2742 27.3087 20.2563 27.3529 20.2514 27.3995C20.2465 27.446 20.2548 27.493 20.2753 27.5351C20.2958 27.5771 20.3278 27.6125 20.3675 27.6373C20.4072 27.662 20.4531 27.6751 20.4999 27.675H22.8093V35.25C22.8093 35.3875 22.9218 35.5 23.0593 35.5H24.9343C25.0718 35.5 25.1843 35.3875 25.1843 35.25V27.6781H27.4999C27.7093 27.6781 27.8249 27.4375 27.6968 27.275L24.1968 22.8437Z" fill="white"/>
<path d="M33.3563 19.9594C31.925 16.1844 28.2781 13.5 24.0063 13.5C19.7344 13.5 16.0875 16.1813 14.6562 19.9563C11.9781 20.6594 10 23.1 10 26C10 29.4531 12.7969 32.25 16.2469 32.25H17.5C17.6375 32.25 17.75 32.1375 17.75 32V30.125C17.75 29.9875 17.6375 29.875 17.5 29.875H16.2469C15.1937 29.875 14.2031 29.4562 13.4656 28.6969C12.7312 27.9406 12.3406 26.9219 12.375 25.8656C12.4031 25.0406 12.6844 24.2656 13.1937 23.6125C13.7156 22.9469 14.4469 22.4625 15.2594 22.2469L16.4438 21.9375L16.8781 20.7937C17.1469 20.0812 17.5219 19.4156 17.9937 18.8125C18.4596 18.2147 19.0114 17.6892 19.6313 17.2531C20.9156 16.35 22.4281 15.8719 24.0063 15.8719C25.5844 15.8719 27.0969 16.35 28.3813 17.2531C29.0031 17.6906 29.5531 18.2156 30.0187 18.8125C30.4906 19.4156 30.8656 20.0844 31.1344 20.7937L31.5656 21.9344L32.7469 22.2469C34.4406 22.7031 35.625 24.2437 35.625 26C35.625 27.0344 35.2219 28.0094 34.4906 28.7406C34.132 29.1013 33.7054 29.3873 33.2355 29.582C32.7656 29.7768 32.2618 29.8763 31.7531 29.875H30.5C30.3625 29.875 30.25 29.9875 30.25 30.125V32C30.25 32.1375 30.3625 32.25 30.5 32.25H31.7531C35.2031 32.25 38 29.4531 38 26C38 23.1031 36.0281 20.6656 33.3563 19.9594Z" fill="white"/>
</svg>
